<svg id="svg" version="1.1" xmlns="http://www.w3.org/2000/svg" xmlns:xlink="http://www.w3.org/1999/xlink" width="400" height="400" viewBox="0, 0, 400,400"><g id="svgg"><path id="path0" d="M103.200 200.792 L 103.200 298.385 104.100 298.602 C 104.595 298.721,148.560 298.769,201.800 298.709 L 298.600 298.600 298.713 202.200 C 298.775 149.180,298.722 105.215,298.595 104.500 L 298.364 103.200 200.782 103.200 L 103.200 103.200 103.200 200.792 " stroke="none" fill="#b088c8" fill-rule="evenodd"></path><path id="path1" d="M0.000 200.000 L 0.000 400.000 91.427 400.000 L 182.854 400.000 181.937 398.700 C 181.432 397.985,178.304 393.980,174.986 389.800 C 171.668 385.620,168.050 381.030,166.946 379.600 C 165.841 378.170,161.374 372.500,157.019 367.000 C 152.663 361.500,148.679 356.460,148.165 355.800 C 147.650 355.140,144.321 350.910,140.767 346.400 C 137.212 341.890,133.884 337.660,133.372 337.000 C 132.860 336.340,130.160 332.920,127.372 329.400 C 124.585 325.880,121.032 321.380,119.477 319.400 C 113.772 312.133,106.202 302.542,104.524 300.453 L 102.798 298.306 102.899 200.653 L 103.000 103.000 200.661 102.899 L 298.323 102.798 301.378 106.699 C 303.058 108.845,304.856 111.140,305.373 111.800 C 309.389 116.925,316.511 126.053,318.902 129.141 C 320.496 131.198,321.980 133.093,322.200 133.351 C 322.420 133.609,323.154 134.535,323.830 135.410 C 324.507 136.284,327.735 140.420,331.004 144.600 C 334.273 148.780,337.860 153.375,338.974 154.812 C 340.088 156.249,342.530 159.380,344.400 161.770 C 347.688 165.971,348.606 167.150,353.829 173.873 C 356.300 177.054,367.879 191.889,369.120 193.464 C 369.494 193.939,371.870 196.984,374.400 200.231 C 376.930 203.478,380.440 207.968,382.200 210.209 C 383.960 212.450,385.850 214.881,386.400 215.612 C 386.950 216.342,388.136 217.853,389.035 218.970 C 389.935 220.086,391.375 221.915,392.235 223.033 C 394.118 225.478,398.806 231.525,399.487 232.385 C 399.871 232.869,399.977 208.150,399.987 116.500 L 400.000 0.000 200.000 0.000 L 0.000 0.000 0.000 200.000 " stroke="none" fill="#fcfbfc" fill-rule="evenodd"></path><path id="path2" d="M298.714 201.600 L 298.600 298.600 201.169 298.600 L 103.737 298.600 105.700 301.000 C 107.916 303.709,108.075 303.908,110.006 306.400 C 110.772 307.390,111.495 308.290,111.610 308.400 C 111.726 308.510,112.446 309.409,113.210 310.399 C 113.975 311.388,114.817 312.468,115.082 312.799 C 115.347 313.129,116.693 314.840,118.073 316.600 C 119.454 318.360,120.686 319.890,120.811 320.000 C 120.936 320.110,121.471 320.830,122.000 321.600 C 122.529 322.370,123.063 323.090,123.187 323.200 C 123.487 323.466,125.156 325.535,126.400 327.182 C 126.950 327.911,127.670 328.819,128.000 329.200 C 128.330 329.581,129.050 330.486,129.600 331.210 C 131.307 333.458,135.371 338.590,135.611 338.800 C 135.736 338.910,136.274 339.630,136.806 340.400 C 137.338 341.170,138.007 342.041,138.293 342.335 C 138.578 342.629,139.304 343.529,139.906 344.335 C 140.508 345.141,141.180 345.996,141.400 346.237 C 141.620 346.477,142.250 347.266,142.800 347.990 C 143.350 348.714,144.070 349.622,144.400 350.008 C 144.730 350.394,145.540 351.398,146.200 352.240 C 146.860 353.082,148.398 355.037,149.618 356.585 C 153.686 361.747,156.590 365.460,157.600 366.790 C 158.150 367.514,158.870 368.427,159.200 368.820 C 160.238 370.053,160.957 370.948,162.400 372.800 C 163.170 373.789,164.102 374.958,164.471 375.399 C 164.839 375.839,166.599 378.090,168.381 380.400 C 170.163 382.710,171.844 384.870,172.116 385.200 C 172.388 385.530,173.239 386.606,174.006 387.590 C 174.772 388.575,175.628 389.625,175.906 389.925 C 176.184 390.224,176.904 391.129,177.506 391.935 C 178.108 392.741,178.780 393.605,179.000 393.855 C 179.220 394.105,180.386 395.590,181.591 397.155 L 183.783 400.000 291.891 400.000 L 400.000 400.000 400.000 316.600 C 400.000 268.859,399.850 233.200,399.648 233.200 C 399.454 233.200,398.522 232.165,397.575 230.900 C 396.628 229.635,395.743 228.510,395.607 228.400 C 395.472 228.290,394.929 227.570,394.400 226.800 C 393.871 226.030,393.337 225.310,393.213 225.200 C 392.901 224.923,391.202 222.813,390.000 221.207 C 389.450 220.473,387.830 218.393,386.400 216.586 C 384.970 214.778,382.720 211.901,381.400 210.192 C 380.080 208.482,378.814 206.885,378.587 206.642 C 378.360 206.399,377.732 205.570,377.193 204.800 C 376.266 203.478,375.830 202.919,374.400 201.220 C 374.070 200.827,373.350 199.914,372.800 199.190 C 372.250 198.466,371.614 197.677,371.387 197.437 C 371.160 197.196,370.532 196.370,369.992 195.600 C 369.453 194.830,368.713 193.840,368.348 193.400 C 367.011 191.787,364.153 188.135,362.400 185.799 C 361.410 184.479,360.420 183.204,360.200 182.963 C 359.980 182.723,359.350 181.930,358.800 181.200 C 358.250 180.470,357.614 179.677,357.387 179.437 C 357.160 179.196,356.536 178.370,356.000 177.600 C 355.464 176.830,354.793 175.959,354.507 175.665 C 354.222 175.371,353.496 174.475,352.894 173.673 C 352.292 172.872,351.498 171.852,351.129 171.408 C 350.761 170.964,349.001 168.710,347.219 166.400 C 345.437 164.090,343.756 161.930,343.484 161.600 C 343.211 161.270,342.550 160.370,342.013 159.600 C 341.477 158.830,340.751 157.930,340.400 157.600 C 340.049 157.270,339.324 156.370,338.788 155.600 C 338.253 154.830,337.369 153.696,336.824 153.080 C 335.829 151.957,335.290 151.263,329.425 143.566 C 327.679 141.275,326.148 139.310,326.023 139.200 C 325.898 139.090,325.304 138.341,324.704 137.535 C 324.103 136.729,323.384 135.829,323.106 135.535 C 322.828 135.241,321.790 133.924,320.800 132.609 C 319.810 131.294,318.701 129.854,318.335 129.409 C 317.743 128.688,312.606 122.076,310.284 119.047 C 309.798 118.412,309.130 117.573,308.800 117.180 C 307.370 115.481,306.934 114.922,306.007 113.600 C 305.468 112.830,304.793 111.959,304.507 111.665 C 304.222 111.371,303.496 110.475,302.894 109.673 C 302.292 108.872,301.499 107.852,301.130 107.408 C 300.762 106.964,300.093 106.150,299.644 105.600 L 298.828 104.600 298.714 201.600 " stroke="none" fill="#c4acd0" fill-rule="evenodd"></path><path id="path3" d="M103.067 103.067 C 102.920 103.213,102.800 147.203,102.800 200.821 L 102.800 298.308 104.524 300.454 C 106.203 302.543,113.774 312.136,119.477 319.400 C 121.032 321.380,124.585 325.880,127.372 329.400 C 130.160 332.920,132.860 336.340,133.372 337.000 C 133.884 337.660,137.212 341.890,140.767 346.400 C 144.321 350.910,147.650 355.140,148.165 355.800 C 148.679 356.460,152.666 361.500,157.024 367.000 C 161.382 372.500,165.705 377.990,166.630 379.200 C 167.555 380.410,171.256 385.115,174.856 389.655 C 178.455 394.195,181.795 398.425,182.278 399.055 C 182.761 399.685,183.161 400.020,183.168 399.800 C 183.175 399.580,181.160 396.861,178.690 393.758 C 176.221 390.655,173.801 387.595,173.314 386.958 C 172.826 386.321,172.069 385.350,171.632 384.800 C 167.178 379.203,155.980 365.027,155.200 363.998 C 154.330 362.851,142.007 347.227,140.687 345.599 C 140.419 345.268,139.570 344.189,138.800 343.200 C 138.030 342.211,137.182 341.132,136.916 340.801 C 136.650 340.471,134.169 337.320,131.403 333.800 C 126.099 327.049,125.976 326.894,124.400 324.966 C 123.850 324.293,122.950 323.143,122.400 322.411 C 121.850 321.679,118.520 317.442,115.000 312.997 C 111.480 308.551,108.150 304.320,107.600 303.594 C 107.050 302.867,106.420 302.072,106.200 301.827 C 105.980 301.581,105.215 300.630,104.500 299.714 L 103.200 298.047 103.200 200.623 L 103.200 103.200 200.700 103.201 L 298.200 103.202 301.600 107.630 C 305.832 113.140,305.778 113.072,309.077 117.245 C 310.575 119.140,312.274 121.300,312.853 122.045 C 313.432 122.790,315.308 125.200,317.022 127.400 C 318.735 129.600,321.039 132.570,322.140 134.000 C 323.242 135.430,324.255 136.690,324.391 136.800 C 324.527 136.910,325.071 137.630,325.600 138.400 C 326.129 139.170,326.665 139.890,326.791 140.000 C 326.917 140.110,327.646 141.009,328.410 141.999 C 329.175 142.988,330.020 144.068,330.289 144.399 C 330.559 144.729,332.237 146.890,334.019 149.200 C 335.801 151.510,337.561 153.764,337.929 154.208 C 338.298 154.652,339.092 155.672,339.694 156.473 C 340.296 157.275,341.022 158.171,341.307 158.465 C 341.593 158.759,342.268 159.630,342.807 160.400 C 343.347 161.170,344.014 162.070,344.289 162.400 C 344.846 163.067,350.634 170.474,353.510 174.200 C 354.529 175.520,355.462 176.690,355.582 176.800 C 355.703 176.910,356.611 178.080,357.600 179.400 C 358.589 180.720,359.501 181.890,359.627 182.000 C 359.753 182.110,360.757 183.370,361.858 184.800 C 362.958 186.230,365.106 189.002,366.630 190.959 C 368.153 192.917,370.104 195.437,370.965 196.559 C 371.825 197.682,373.321 199.590,374.289 200.800 C 376.614 203.706,376.768 203.904,378.400 206.095 C 379.170 207.129,379.946 207.981,380.123 207.988 C 380.462 208.001,378.759 205.704,373.462 199.000 C 371.724 196.800,369.883 194.460,369.371 193.800 C 368.859 193.140,365.700 189.090,362.349 184.800 C 358.999 180.510,355.165 175.593,353.829 173.873 C 348.606 167.150,347.688 165.971,344.400 161.770 C 342.530 159.380,340.088 156.249,338.974 154.812 C 337.860 153.375,334.273 148.780,331.004 144.600 C 327.735 140.420,324.507 136.284,323.830 135.410 C 323.154 134.535,322.420 133.609,322.200 133.351 C 321.980 133.093,320.496 131.198,318.902 129.141 C 316.511 126.053,309.389 116.925,305.373 111.800 C 304.856 111.140,303.058 108.845,301.378 106.700 L 298.324 102.800 200.829 102.800 C 147.206 102.800,103.213 102.920,103.067 103.067 M381.067 209.373 C 383.507 212.612,387.006 217.126,389.794 220.632 C 391.557 222.850,393.450 225.263,394.000 225.995 C 396.649 229.519,399.641 233.200,399.857 233.200 C 399.990 233.200,399.920 232.975,399.703 232.700 C 399.066 231.895,393.939 225.263,392.235 223.041 C 391.375 221.918,389.935 220.086,389.035 218.970 C 388.136 217.853,386.950 216.340,386.400 215.607 C 384.224 212.706,380.717 208.400,380.531 208.400 C 380.422 208.400,380.663 208.838,381.067 209.373 " stroke="none" fill="#d3c2dc" fill-rule="evenodd"></path><path id="path4" d="" stroke="none" fill="#c4b4d4" fill-rule="evenodd"></path></g></svg>